<?xml version="1.0" encoding="utf-8"?>
<!-- Generator: Adobe Illustrator 24.0.1, SVG Export Plug-In . SVG Version: 6.00 Build 0)  -->
<svg version="1.1" id="Ebene_1" xmlns="http://www.w3.org/2000/svg" xmlns:xlink="http://www.w3.org/1999/xlink" x="0px" y="0px"
	 viewBox="0 0 1000 1000" style="enable-background:new 0 0 1000 1000;" xml:space="preserve">
<style type="text/css">
	.st0{fill:#F39200;}
	.st1{fill:none;stroke:#485258;stroke-width:35;stroke-linecap:round;stroke-miterlimit:10;}
	.st2{fill:none;stroke:#485258;stroke-width:35;stroke-linecap:round;stroke-linejoin:round;stroke-miterlimit:10;}
	.st3{fill:none;stroke:#485258;stroke-width:35;stroke-miterlimit:10;}
	.st4{fill:#485258;stroke:#485258;stroke-width:16;stroke-miterlimit:10;}
	.st5{fill:none;}
	.st6{fill:#FFFFFF;}
	.st7{fill:#FFFFFF;stroke:#485258;stroke-width:35;stroke-linecap:round;stroke-linejoin:round;stroke-miterlimit:10;}
	.st8{fill:#485258;}
	.st9{fill:#F39200;stroke:#F39200;stroke-width:15;stroke-miterlimit:22.9256;}
	.st10{fill:#485258;stroke:#485258;stroke-width:16;stroke-miterlimit:22.9256;}
	.st11{fill:none;stroke:#485258;stroke-width:0;stroke-linecap:round;stroke-linejoin:round;}
</style>
<g>
	<path class="st0" d="M864.81,853.16c0-49.99,0-99.97,0-149.96c-239.8,71.79-489.82,71.79-729.62,0c0,49.99,0,99.97,0,149.96
		C378.4,853.16,621.6,853.16,864.81,853.16z"/>
	<polyline class="st3" points="875,388.66 500,580.63 125,388.66 	"/>
	<path class="st3" d="M875,388.66L500,138.12L125,388.66v451.25c0,12.13,9.84,21.97,21.97,21.97h706.07
		c12.13,0,21.97-9.83,21.97-21.97V388.66z"/>
	<g>
		<path class="st1" d="M386.59,586.52L480,634.34c6.28,3.22,13.14,4.82,20,4.82c6.86,0,13.72-1.61,20-4.82l93.41-47.82"/>
	</g>
	<polyline class="st3" points="691.97,482.36 691.97,338.84 308.03,338.84 308.03,482.36 	"/>
	<line class="st3" x1="391.46" y1="408.19" x2="608.54" y2="408.19"/>
	<line class="st3" x1="391.46" y1="465.22" x2="608.54" y2="465.22"/>
</g>
</svg>
