<?xml version="1.0" encoding="utf-8"?>
<!-- Generator: Adobe Illustrator 24.0.1, SVG Export Plug-In . SVG Version: 6.00 Build 0)  -->
<svg version="1.1" id="Ebene_1" xmlns="http://www.w3.org/2000/svg" xmlns:xlink="http://www.w3.org/1999/xlink" x="0px" y="0px"
	 viewBox="0 0 1000 1000" style="enable-background:new 0 0 1000 1000;" xml:space="preserve">
<style type="text/css">
	.st0{fill:#F39200;}
	.st1{fill:none;stroke:#485258;stroke-width:35;stroke-linecap:round;stroke-miterlimit:10;}
	.st2{fill:none;stroke:#485258;stroke-width:35;stroke-linecap:round;stroke-linejoin:round;stroke-miterlimit:10;}
	.st3{fill:none;stroke:#485258;stroke-width:35;stroke-miterlimit:10;}
	.st4{fill:#485258;stroke:#485258;stroke-width:16;stroke-miterlimit:10;}
	.st5{fill:none;}
	.st6{fill:#FFFFFF;}
	.st7{fill:#FFFFFF;stroke:#485258;stroke-width:35;stroke-linecap:round;stroke-linejoin:round;stroke-miterlimit:10;}
	.st8{fill:#485258;}
	.st9{fill:#F39200;stroke:#F39200;stroke-width:15;stroke-miterlimit:22.9256;}
	.st10{fill:#485258;stroke:#485258;stroke-width:16;stroke-miterlimit:22.9256;}
	.st11{fill:none;stroke:#485258;stroke-width:0;stroke-linecap:round;stroke-linejoin:round;}
</style>
<g>
	<path class="st0" d="M771.3,279.29c-1.77,29.85-26.47,53.53-56.76,53.53s-54.99-23.68-56.76-53.53H342.23
		c-1.77,29.85-26.47,53.53-56.76,53.53c-30.3,0-54.99-23.68-56.76-53.53H119.1v99.07l755.82-3.77l-0.54-95.3H771.3z"/>
	<path class="st3" d="M875,380.47V768.8c0,20.28-16.44,36.71-36.71,36.71H161.71c-20.27,0-36.71-16.44-36.71-36.71V380.47"/>
	<g>
		<g>
			<path class="st1" d="M253.46,263.2c-1.74,4.09-2.75,8.57-2.75,13.31c0,19.2,15.56,34.76,34.76,34.76
				c19.2,0,34.76-15.56,34.76-34.76c0-4.74-1.01-9.21-2.75-13.31"/>
		</g>
		<line class="st1" x1="285.46" y1="293.1" x2="285.46" y2="194.49"/>
	</g>
	<g>
		<g>
			<path class="st1" d="M746.54,263.2c1.74,4.09,2.75,8.57,2.75,13.31c0,19.2-15.56,34.76-34.76,34.76
				c-19.2,0-34.76-15.56-34.76-34.76c0-4.74,1.01-9.21,2.75-13.31"/>
		</g>
		<line class="st1" x1="714.53" y1="303.52" x2="714.53" y2="194.49"/>
	</g>
	<line class="st1" x1="676.12" y1="217.05" x2="323.88" y2="217.05"/>
	<path class="st1" d="M247.05,217.05h-85.34c-20.27,0-36.71,16.44-36.71,36.71v126.7h750v-126.7c0-20.28-16.44-36.71-36.71-36.71
		h-85.34"/>
	<g>
		<line class="st1" x1="337.5" y1="460.95" x2="337.5" y2="537.17"/>
		<line class="st1" x1="445.83" y1="460.95" x2="445.83" y2="537.17"/>
		<line class="st1" x1="554.17" y1="460.95" x2="554.17" y2="537.17"/>
		<line class="st1" x1="662.5" y1="460.95" x2="662.5" y2="537.17"/>
		<line class="st1" x1="337.5" y1="647.54" x2="337.5" y2="723.76"/>
		<line class="st1" x1="445.83" y1="647.54" x2="445.83" y2="723.76"/>
		<line class="st1" x1="554.17" y1="647.54" x2="554.17" y2="723.76"/>
		<line class="st1" x1="662.5" y1="647.54" x2="662.5" y2="723.76"/>
	</g>
	<line class="st1" x1="276.43" y1="592.99" x2="723.57" y2="592.99"/>
</g>
</svg>
