<?xml version="1.0" encoding="utf-8"?>
<!-- Generator: Adobe Illustrator 24.0.1, SVG Export Plug-In . SVG Version: 6.00 Build 0)  -->
<svg version="1.1" id="Ebene_1" xmlns="http://www.w3.org/2000/svg" xmlns:xlink="http://www.w3.org/1999/xlink" x="0px" y="0px"
	 viewBox="0 0 1000 1000" style="enable-background:new 0 0 1000 1000;" xml:space="preserve">
<style type="text/css">
	.st0{fill:#F39200;}
	.st1{fill:none;stroke:#485258;stroke-width:35;stroke-linecap:round;stroke-miterlimit:10;}
	.st2{fill:none;stroke:#485258;stroke-width:35;stroke-linecap:round;stroke-linejoin:round;stroke-miterlimit:10;}
	.st3{fill:none;stroke:#485258;stroke-width:35;stroke-miterlimit:10;}
	.st4{fill:#485258;stroke:#485258;stroke-width:16;stroke-miterlimit:10;}
	.st5{fill:none;}
	.st6{fill:#FFFFFF;}
	.st7{fill:#FFFFFF;stroke:#485258;stroke-width:35;stroke-linecap:round;stroke-linejoin:round;stroke-miterlimit:10;}
	.st8{fill:#485258;}
	.st9{fill:#F39200;stroke:#F39200;stroke-width:15;stroke-miterlimit:22.9256;}
	.st10{fill:#485258;stroke:#485258;stroke-width:16;stroke-miterlimit:22.9256;}
	.st11{fill:none;stroke:#485258;stroke-width:0;stroke-linecap:round;stroke-linejoin:round;}
</style>
<path class="st2" d="M331.54,390.47h-39c-8.96,0.01-17.61-3.34-24.22-9.39l-16.65-15.23"/>
<path id="XMLID_183_" class="st0" d="M183.84,471.2h67.91v-11.95c0-12.02-8.82-22.21-20.71-23.94l-47.2-6.5V471.2z"/>
<path class="st2" d="M390.97,252.09H246.7c-12.16,0-23.61,5.69-30.95,15.38l-37.02,70.99h-42.78c-6.05,0-10.95,4.9-10.95,10.95
	v22.21c0,3.04,1.27,5.95,3.49,8.02l18.75,20.36"/>
<path class="st2" d="M215.97,512.57v4.19c0,18.98-15.38,34.36-34.36,34.36l0,0c-18.98,0-34.36-15.39-34.36-34.36v-4.19V399.99"/>
<path class="st2" d="M342.04,512.57c-30.8,0-112.08,0-142.39,0"/>
<line class="st2" x1="315.21" y1="471.2" x2="342.04" y2="471.2"/>
<path class="st2" d="M625.2,829.71c0,0-249.8-193.34-249.8-410.63c0-137.96,111.84-249.8,249.8-249.8
	c137.96,0,249.8,111.84,249.8,249.8C875,636.38,625.2,829.71,625.2,829.71z"/>
<circle class="st2" cx="622.93" cy="424.39" r="149.29"/>
<circle class="st0" cx="622.93" cy="424.39" r="102.31"/>
</svg>
