<?xml version="1.0" encoding="utf-8"?>
<!-- Generator: Adobe Illustrator 24.0.1, SVG Export Plug-In . SVG Version: 6.00 Build 0)  -->
<svg version="1.1" id="Ebene_1" xmlns="http://www.w3.org/2000/svg" xmlns:xlink="http://www.w3.org/1999/xlink" x="0px" y="0px"
	 viewBox="0 0 1000 1000" style="enable-background:new 0 0 1000 1000;" xml:space="preserve">
<style type="text/css">
	.st0{fill:#F39200;}
	.st1{fill:none;stroke:#485258;stroke-width:35;stroke-linecap:round;stroke-miterlimit:10;}
	.st2{fill:none;stroke:#485258;stroke-width:35;stroke-linecap:round;stroke-linejoin:round;stroke-miterlimit:10;}
	.st3{fill:none;stroke:#485258;stroke-width:35;stroke-miterlimit:10;}
	.st4{fill:#485258;stroke:#485258;stroke-width:16;stroke-miterlimit:10;}
	.st5{fill:none;}
	.st6{fill:#FFFFFF;}
	.st7{fill:#FFFFFF;stroke:#485258;stroke-width:35;stroke-linecap:round;stroke-linejoin:round;stroke-miterlimit:10;}
	.st8{fill:#485258;}
	.st9{fill:#F39200;stroke:#F39200;stroke-width:15;stroke-miterlimit:22.9256;}
	.st10{fill:#485258;stroke:#485258;stroke-width:16;stroke-miterlimit:22.9256;}
	.st11{fill:none;stroke:#485258;stroke-width:0;stroke-linecap:round;stroke-linejoin:round;}
</style>
<g>
	<g id="XMLID_316_">
		<path id="XMLID_317_" class="st0" d="M500,875c207.1,0,375-167.88,375-374.98S707.1,125,500,125S125,292.92,125,500.02
			S292.9,875,500,875"/>
	</g>
	<path class="st7" d="M780.34,746.28L669.78,635.72c-15.39-15.4-40.36-15.4-55.75,0l-55.54,55.54
		c-13.92,13.92-35.71,16.58-52.32,6.01c-82.83-52.7-152.65-121.97-204.34-204.09c-10.43-16.58-7.7-38.25,6.15-52.1l55.71-55.71
		c15.4-15.39,15.4-40.35,0-55.75L253.11,219.06c-15.4-15.4-40.36-15.39-55.76,0.01l-65.5,65.53
		c-14.61,14.62-19.51,36.42-12.39,55.83c91.84,250.3,289.21,447.66,539.5,539.5c19.4,7.12,41.21,2.22,55.82-12.39l65.53-65.5
		C795.73,786.64,795.74,761.68,780.34,746.28z"/>
	<g>
		<path class="st8" d="M449.04,456.13l88.36-67.45c21.92-17.2,30.35-28.33,30.35-42.5c0-14.84-10.46-23.95-26.31-23.95
			s-28.33,9.11-46.88,30.35l-44.18-36.76c25.3-32.72,50.25-50.59,96.12-50.59c51.6,0,87.02,30.69,87.02,75.21v0.67
			c0,37.78-19.56,57.34-54.64,82.63l-40.47,28.33h97.47v53.29H449.04V456.13z"/>
		<path class="st8" d="M772.82,459.51H658.48l-10.79-46.21l122.43-145.7h66.11v143h30.02v48.9h-30.02v45.87h-63.41V459.51z
			 M772.82,410.94v-67.79l-56.32,67.79H772.82z"/>
	</g>
</g>
</svg>
