<?xml version="1.0" encoding="utf-8"?>
<!-- Generator: Adobe Illustrator 24.0.1, SVG Export Plug-In . SVG Version: 6.00 Build 0)  -->
<svg version="1.1" id="Ebene_1" xmlns="http://www.w3.org/2000/svg" xmlns:xlink="http://www.w3.org/1999/xlink" x="0px" y="0px"
	 viewBox="0 0 1000 1000" style="enable-background:new 0 0 1000 1000;" xml:space="preserve">
<style type="text/css">
	.st0{fill:#F39200;}
	.st1{fill:none;stroke:#485258;stroke-width:35;stroke-linecap:round;stroke-miterlimit:10;}
	.st2{fill:none;stroke:#485258;stroke-width:35;stroke-linecap:round;stroke-linejoin:round;stroke-miterlimit:10;}
	.st3{fill:none;stroke:#485258;stroke-width:35;stroke-miterlimit:10;}
	.st4{fill:#485258;stroke:#485258;stroke-width:16;stroke-miterlimit:10;}
	.st5{fill:none;}
	.st6{fill:#FFFFFF;}
	.st7{fill:#FFFFFF;stroke:#485258;stroke-width:35;stroke-linecap:round;stroke-linejoin:round;stroke-miterlimit:10;}
	.st8{fill:#485258;}
	.st9{fill:#F39200;stroke:#F39200;stroke-width:15;stroke-miterlimit:22.9256;}
	.st10{fill:#485258;stroke:#485258;stroke-width:16;stroke-miterlimit:22.9256;}
	.st11{fill:none;stroke:#485258;stroke-width:0;stroke-linecap:round;stroke-linejoin:round;}
</style>
<g>
	<g>
		<g>
			<g>
				<g>
					<g>
						<path class="st0" d="M439.29,409.43h270.85l-48.92-89.69c-2.81-5.14-8.19-8.34-14.05-8.34H500H352.84
							c-5.86,0-11.25,3.19-14.05,8.34l-48.92,89.69H439.29z"/>
					</g>
				</g>
			</g>
		</g>
	</g>
	<g>
		<g>
			<g>
				<g>
					<g>
						<path class="st5" d="M243.03,582.5h108.16v-19.03c0-19.14-14.04-35.38-32.98-38.14l-75.18-10.35V582.5z"/>
					</g>
				</g>
			</g>
		</g>
	</g>
	<g>
		<g>
			<g>
				<g>
					<g>
						<path class="st5" d="M756.97,582.5H648.81v-19.03c0-19.14,14.04-35.38,32.98-38.14l75.18-10.35V582.5z"/>
					</g>
				</g>
			</g>
		</g>
	</g>
	<g>
		<g>
			<g>
				<g>
					<g>
						<path class="st4" d="M360.4,591.71H243.03c-5.09,0-9.21-4.12-9.21-9.21c0-5.09,4.12-9.21,9.21-9.21h98.95v-9.82
							c0-14.46-10.79-26.94-25.1-29.02l-75.11-10.34c-5.04-0.69-8.56-5.34-7.87-10.38c0.69-5.04,5.37-8.57,10.38-7.87l75.18,10.35
							c23.37,3.41,40.93,23.72,40.93,47.26V591.71z"/>
					</g>
				</g>
			</g>
		</g>
	</g>
	<g>
		<g>
			<g>
				<g>
					<g>
						<path class="st4" d="M761.63,748.44h-25.32c-30.06,0-54.51-24.45-54.51-54.51v-16.11H318.2v16.11
							c0,30.06-24.45,54.51-54.51,54.51h-25.32c-30.06,0-54.51-24.45-54.51-54.51V490.42l-40.45-14.78
							c-7.95-2.9-13.29-10.54-13.29-19v-37.08c0-11.15,9.08-20.23,20.23-20.23h52.54c11.6,0,22.26-6.33,27.82-16.51l52.36-96
							c11.87-21.76,34.63-35.27,59.41-35.27h315.01c24.78,0,47.54,13.51,59.41,35.27l52.36,96c5.56,10.19,16.22,16.51,27.82,16.51
							h52.54c11.15,0,20.23,9.08,20.23,20.23v37.08c0,8.46-5.34,16.09-13.29,19l-40.45,14.78v203.52
							C816.13,723.99,791.68,748.44,761.63,748.44z M299.78,659.41h400.43v34.53c0,19.9,16.19,36.09,36.09,36.09h25.32
							c19.9,0,36.09-16.19,36.09-36.09V477.54l52.55-19.2c0.71-0.26,1.19-0.94,1.19-1.7v-37.08c0-1-0.81-1.81-1.81-1.81H797.1
							c-18.35,0-35.2-10.01-43.99-26.11l-52.36-96c-8.64-15.83-25.21-25.67-43.24-25.67H342.49c-18.04,0-34.61,9.84-43.24,25.67
							l-52.36,96c-8.79,16.11-25.64,26.11-43.99,26.11h-52.54c-1,0-1.82,0.81-1.82,1.81v37.08c0,0.76,0.48,1.44,1.19,1.7l52.54,19.2
							v216.39c0,19.9,16.19,36.09,36.09,36.09h25.32c19.9,0,36.09-16.19,36.09-36.09V659.41z"/>
					</g>
				</g>
			</g>
		</g>
	</g>
	<g>
		<g>
			<g>
				<g>
					<g>
						<path class="st4" d="M725.65,418.64h-451.3l56.35-103.31c4.42-8.11,12.9-13.14,22.14-13.14h294.33
							c9.24,0,17.72,5.03,22.14,13.14L725.65,418.64z M305.38,400.23h389.25l-41.49-76.07c-1.19-2.18-3.48-3.54-5.97-3.54H352.84
							c-2.49,0-4.78,1.36-5.97,3.54L305.38,400.23z"/>
					</g>
				</g>
			</g>
		</g>
	</g>
	<g>
		<g>
			<g>
				<g>
					<g>
						<path class="st4" d="M756.97,591.71H639.6v-28.24c0-23.54,17.57-43.85,40.87-47.25l75.25-10.36
							c5.01-0.71,9.68,2.82,10.38,7.87c0.7,5.04-2.83,9.68-7.87,10.38l-75.18,10.35c-14.24,2.08-25.03,14.56-25.03,29.02v9.82h98.95
							c5.09,0,9.21,4.12,9.21,9.21C766.18,587.59,762.06,591.71,756.97,591.71z"/>
					</g>
				</g>
			</g>
		</g>
	</g>
	<g>
		<g>
			<g>
				<g>
					<g>
						<path class="st4" d="M579.06,593.43H420.94c-5.09,0-9.21-4.12-9.21-9.21c0-5.09,4.12-9.21,9.21-9.21h158.12
							c5.09,0,9.21,4.12,9.21,9.21C588.27,589.31,584.15,593.43,579.06,593.43z"/>
					</g>
				</g>
			</g>
		</g>
	</g>
	<g>
		<g>
			<g>
				<g>
					<g>
						<path class="st4" d="M579.07,593.43c-0.35,0-0.71-0.02-1.07-0.06c-5.05-0.58-8.67-5.15-8.09-10.2l6.04-52.34h-151.9
							l6.04,52.34c0.58,5.05-3.04,9.62-8.09,10.2c-5.04,0.56-9.62-3.04-10.2-8.09l-8.41-72.87h193.23l-8.41,72.87
							C587.67,589.97,583.69,593.43,579.07,593.43z"/>
					</g>
				</g>
			</g>
		</g>
	</g>
	<path class="st0" d="M576.64,530.83l-5.16,44.19H428.15l-5.16-44.19H576.64z"/>
	<g>
		<g>
			<g>
				<g>
					<g>
						<path class="st4" d="M308.99,677.83h-47.39c-5.09,0-9.21-4.12-9.21-9.21c0-5.09,4.12-9.21,9.21-9.21h47.39
							c5.09,0,9.21,4.12,9.21,9.21C318.2,673.71,314.08,677.83,308.99,677.83z"/>
					</g>
				</g>
			</g>
		</g>
	</g>
	<g>
		<g>
			<g>
				<g>
					<g>
						<path class="st4" d="M738.39,677.83h-47.39c-5.09,0-9.21-4.12-9.21-9.21c0-5.09,4.12-9.21,9.21-9.21h47.39
							c5.09,0,9.21,4.12,9.21,9.21C747.6,673.71,743.48,677.83,738.39,677.83z"/>
					</g>
				</g>
			</g>
		</g>
	</g>
</g>
</svg>
