<?xml version="1.0" encoding="utf-8"?>
<!-- Generator: Adobe Illustrator 24.0.1, SVG Export Plug-In . SVG Version: 6.00 Build 0)  -->
<svg version="1.1" id="Ebene_1" xmlns="http://www.w3.org/2000/svg" xmlns:xlink="http://www.w3.org/1999/xlink" x="0px" y="0px"
	 viewBox="0 0 283.46 57.73" style="enable-background:new 0 0 283.46 57.73;" xml:space="preserve">
<style type="text/css">
	.st0{fill:#485258;}
	.st1{fill:#EC7405;}
	.st2{fill:#FFFFFF;}
</style>
<g>
	<path class="st0" d="M81.9,24.64h1.08v2c0.18-0.29,0.38-0.58,0.61-0.85c0.23-0.27,0.49-0.51,0.78-0.73
		c0.29-0.21,0.63-0.38,1.02-0.51c0.39-0.12,0.83-0.19,1.33-0.19c0.48,0,0.93,0.07,1.33,0.2c0.4,0.13,0.76,0.31,1.07,0.53
		c0.31,0.22,0.58,0.48,0.8,0.77c0.23,0.29,0.42,0.6,0.58,0.92c0.18-0.31,0.39-0.61,0.64-0.9c0.25-0.29,0.54-0.55,0.87-0.78
		s0.7-0.41,1.12-0.54c0.42-0.13,0.89-0.2,1.42-0.2c0.66,0,1.26,0.11,1.79,0.34c0.54,0.23,0.99,0.54,1.36,0.95
		c0.37,0.4,0.66,0.9,0.86,1.48s0.3,1.22,0.3,1.93v6.8h-1.08V29.2c0-1.22-0.29-2.16-0.88-2.83s-1.4-1-2.44-1
		c-0.47,0-0.92,0.09-1.35,0.26c-0.43,0.18-0.81,0.43-1.13,0.77c-0.32,0.34-0.58,0.75-0.77,1.24c-0.19,0.49-0.29,1.05-0.29,1.68v6.54
		h-1.08v-6.74c0-1.17-0.29-2.09-0.88-2.76s-1.39-1-2.4-1c-0.5,0-0.97,0.1-1.41,0.31s-0.82,0.49-1.14,0.86
		c-0.32,0.37-0.58,0.79-0.76,1.28s-0.27,1.01-0.27,1.58v6.47H81.9V24.64z"/>
	<path class="st0" d="M107.58,36.13c-0.74,0-1.44-0.14-2.11-0.42s-1.26-0.67-1.77-1.19c-0.51-0.51-0.91-1.13-1.2-1.85
		c-0.29-0.72-0.44-1.52-0.44-2.4v-0.04c0-0.81,0.14-1.57,0.41-2.28c0.27-0.71,0.65-1.33,1.12-1.86c0.48-0.53,1.04-0.95,1.68-1.25
		c0.65-0.31,1.35-0.46,2.11-0.46c0.79,0,1.5,0.15,2.14,0.45c0.63,0.3,1.17,0.72,1.62,1.24s0.79,1.15,1.03,1.86s0.36,1.49,0.36,2.32
		c0,0.1,0,0.18,0,0.23c0,0.05-0.01,0.12-0.02,0.21h-9.31c0.04,0.7,0.2,1.32,0.46,1.86c0.26,0.54,0.6,1,0.99,1.38
		c0.4,0.38,0.85,0.67,1.36,0.87c0.51,0.2,1.04,0.29,1.6,0.29c0.88,0,1.63-0.17,2.24-0.51c0.61-0.34,1.15-0.76,1.62-1.25l0.75,0.66
		c-0.57,0.62-1.22,1.13-1.95,1.53C109.55,35.93,108.65,36.13,107.58,36.13z M111.4,29.72c-0.04-0.57-0.16-1.12-0.34-1.64
		c-0.18-0.52-0.44-0.98-0.77-1.39c-0.33-0.4-0.74-0.73-1.23-0.97c-0.49-0.24-1.05-0.36-1.7-0.36c-0.56,0-1.08,0.11-1.57,0.33
		s-0.91,0.52-1.27,0.91c-0.36,0.39-0.66,0.85-0.89,1.39s-0.38,1.11-0.42,1.73H111.4z"/>
	<path class="st0" d="M115.71,20.24h1.34v1.48h-1.34V20.24z M115.84,24.64h1.08v11.23h-1.08V24.64z"/>
	<path class="st0" d="M121.17,24.64h1.08v2.09c0.38-0.66,0.9-1.22,1.54-1.67c0.65-0.45,1.48-0.68,2.51-0.68
		c0.7,0,1.34,0.11,1.89,0.34s1.03,0.55,1.42,0.96c0.39,0.41,0.68,0.9,0.88,1.46c0.2,0.56,0.3,1.19,0.3,1.86v6.87h-1.08V29.2
		c0-1.16-0.31-2.09-0.92-2.78c-0.62-0.7-1.5-1.05-2.64-1.05c-0.56,0-1.07,0.1-1.54,0.3c-0.47,0.2-0.88,0.47-1.23,0.83
		c-0.35,0.35-0.63,0.77-0.83,1.27c-0.2,0.49-0.3,1.03-0.3,1.62v6.49h-1.08V24.64z"/>
	<path class="st0" d="M144.68,36.13c-0.53,0-1.05-0.07-1.56-0.22c-0.51-0.15-0.98-0.37-1.39-0.66c-0.41-0.29-0.75-0.66-1-1.1
		s-0.39-0.95-0.39-1.54v-0.04c0-0.59,0.12-1.11,0.36-1.56c0.24-0.45,0.58-0.84,1-1.14c0.43-0.31,0.94-0.54,1.54-0.7
		c0.6-0.16,1.27-0.24,2-0.24c0.79,0,1.48,0.04,2.05,0.13s1.13,0.21,1.67,0.35v-0.48c0-1.14-0.33-1.99-0.98-2.56
		c-0.65-0.57-1.56-0.85-2.72-0.85c-0.69,0-1.32,0.08-1.89,0.25c-0.57,0.17-1.11,0.39-1.63,0.65l-0.4-0.95
		c0.62-0.3,1.24-0.54,1.87-0.72c0.63-0.18,1.33-0.27,2.11-0.27c1.54,0,2.72,0.41,3.54,1.23c0.76,0.76,1.14,1.82,1.14,3.17v7h-1.06
		V34c-0.19,0.26-0.42,0.52-0.69,0.78s-0.58,0.48-0.94,0.68c-0.35,0.2-0.75,0.36-1.2,0.48C145.69,36.07,145.21,36.13,144.68,36.13z
		 M144.74,35.1c0.57,0,1.12-0.08,1.63-0.25s0.96-0.4,1.35-0.7s0.7-0.66,0.92-1.08c0.23-0.42,0.34-0.89,0.34-1.4v-1.27
		c-0.47-0.12-1.02-0.23-1.65-0.34c-0.63-0.11-1.35-0.16-2.16-0.16c-1.19,0-2.1,0.24-2.74,0.71c-0.64,0.47-0.96,1.11-0.96,1.9v0.04
		c0,0.41,0.09,0.77,0.26,1.08c0.18,0.31,0.42,0.58,0.72,0.8c0.3,0.22,0.65,0.39,1.05,0.5C143.91,35.04,144.32,35.1,144.74,35.1z"/>
	<path class="st0" d="M158.17,36.13c-0.7,0-1.33-0.11-1.89-0.34s-1.03-0.55-1.42-0.96c-0.39-0.41-0.68-0.9-0.88-1.46
		c-0.2-0.57-0.3-1.19-0.3-1.86v-6.87h1.08v6.67c0,1.16,0.31,2.09,0.92,2.78c0.62,0.7,1.5,1.05,2.64,1.05c0.54,0,1.05-0.1,1.53-0.3
		c0.48-0.2,0.89-0.47,1.24-0.83c0.35-0.35,0.63-0.77,0.83-1.27c0.2-0.49,0.3-1.03,0.3-1.62v-6.49h1.08v11.23h-1.08v-2.09
		c-0.38,0.66-0.9,1.22-1.54,1.67C160.04,35.9,159.2,36.13,158.17,36.13z"/>
	<path class="st0" d="M171.14,36.06c-0.44,0-0.85-0.06-1.23-0.18c-0.38-0.12-0.72-0.3-1-0.56s-0.51-0.58-0.67-0.97
		c-0.16-0.39-0.24-0.85-0.24-1.38v-7.35h-1.63v-0.99h1.63v-3.59h1.08v3.59h3.94v0.99h-3.94v7.23c0,0.81,0.21,1.37,0.63,1.69
		s0.96,0.48,1.62,0.48c0.28,0,0.54-0.03,0.79-0.08c0.25-0.06,0.54-0.15,0.86-0.29v1.01c-0.29,0.13-0.58,0.23-0.87,0.3
		C171.81,36.03,171.49,36.06,171.14,36.06z"/>
	<path class="st0" d="M181.18,36.13c-0.84,0-1.6-0.16-2.3-0.47s-1.3-0.74-1.82-1.27s-0.91-1.14-1.2-1.85
		c-0.29-0.7-0.43-1.45-0.43-2.25v-0.04c0-0.79,0.14-1.54,0.43-2.25c0.29-0.7,0.69-1.33,1.21-1.87c0.52-0.54,1.13-0.97,1.84-1.29
		c0.7-0.32,1.47-0.47,2.31-0.47c0.84,0,1.6,0.16,2.3,0.47c0.7,0.32,1.3,0.74,1.82,1.27s0.91,1.15,1.2,1.85
		c0.29,0.7,0.43,1.45,0.43,2.25v0.04c0,0.79-0.14,1.54-0.43,2.25s-0.69,1.33-1.21,1.87c-0.52,0.54-1.13,0.97-1.84,1.29
		C182.78,35.97,182.01,36.13,181.18,36.13z M181.22,35.1c0.66,0,1.28-0.13,1.85-0.38c0.57-0.25,1.05-0.6,1.46-1.03
		s0.72-0.94,0.95-1.52c0.23-0.58,0.34-1.21,0.34-1.86v-0.04c0-0.67-0.12-1.3-0.35-1.9c-0.24-0.59-0.56-1.11-0.99-1.54
		c-0.42-0.44-0.91-0.78-1.48-1.03c-0.57-0.25-1.18-0.37-1.82-0.37c-0.66,0-1.28,0.13-1.85,0.38c-0.57,0.26-1.05,0.6-1.46,1.03
		c-0.41,0.43-0.72,0.94-0.95,1.52c-0.23,0.58-0.34,1.21-0.34,1.86v0.04c0,0.67,0.12,1.3,0.35,1.9s0.56,1.11,0.98,1.54
		c0.42,0.44,0.91,0.78,1.48,1.03C179.96,34.97,180.57,35.1,181.22,35.1z"/>
	<path class="st0" d="M189.52,35.25l8.1-9.64h-7.79v-0.97h9.4v0.62l-8.1,9.64h8.1v0.97h-9.71V35.25z"/>
	<path class="st0" d="M207.23,36.13c-0.74,0-1.44-0.14-2.11-0.42c-0.67-0.28-1.26-0.67-1.76-1.19c-0.51-0.51-0.91-1.13-1.2-1.85
		c-0.29-0.72-0.44-1.52-0.44-2.4v-0.04c0-0.81,0.14-1.57,0.41-2.28c0.27-0.71,0.65-1.33,1.12-1.86s1.04-0.95,1.68-1.25
		c0.65-0.31,1.35-0.46,2.11-0.46c0.79,0,1.5,0.15,2.14,0.45s1.17,0.72,1.62,1.24c0.45,0.53,0.79,1.15,1.03,1.86s0.36,1.49,0.36,2.32
		c0,0.1,0,0.18,0,0.23c0,0.05-0.01,0.12-0.02,0.21h-9.31c0.04,0.7,0.2,1.32,0.46,1.86c0.27,0.54,0.6,1,0.99,1.38
		c0.4,0.38,0.85,0.67,1.36,0.87c0.51,0.2,1.04,0.29,1.6,0.29c0.88,0,1.63-0.17,2.24-0.51c0.61-0.34,1.15-0.76,1.62-1.25l0.75,0.66
		c-0.57,0.62-1.22,1.13-1.95,1.53C209.2,35.93,208.3,36.13,207.23,36.13z M211.05,29.72c-0.04-0.57-0.16-1.12-0.34-1.64
		c-0.18-0.52-0.44-0.98-0.77-1.39c-0.33-0.4-0.74-0.73-1.22-0.97s-1.05-0.36-1.7-0.36c-0.56,0-1.08,0.11-1.57,0.33
		s-0.91,0.52-1.27,0.91s-0.66,0.85-0.89,1.39s-0.38,1.11-0.42,1.73H211.05z"/>
	<path class="st0" d="M215.34,24.64h1.08v2.09c0.38-0.66,0.89-1.22,1.54-1.67c0.65-0.45,1.48-0.68,2.51-0.68
		c0.71,0,1.34,0.11,1.89,0.34s1.03,0.55,1.42,0.96s0.68,0.9,0.88,1.46s0.3,1.19,0.3,1.86v6.87h-1.08V29.2
		c0-1.16-0.31-2.09-0.92-2.78c-0.62-0.7-1.5-1.05-2.64-1.05c-0.56,0-1.07,0.1-1.54,0.3s-0.88,0.47-1.23,0.83
		c-0.35,0.35-0.63,0.77-0.83,1.27s-0.3,1.03-0.3,1.62v6.49h-1.08V24.64z"/>
	<path class="st0" d="M232.58,36.06c-0.44,0-0.85-0.06-1.23-0.18c-0.38-0.12-0.72-0.3-1-0.56s-0.51-0.58-0.67-0.97
		c-0.16-0.39-0.24-0.85-0.24-1.38v-7.35h-1.63v-0.99h1.63v-3.59h1.08v3.59h3.94v0.99h-3.94v7.23c0,0.81,0.21,1.37,0.63,1.69
		s0.96,0.48,1.62,0.48c0.28,0,0.54-0.03,0.79-0.08c0.25-0.06,0.54-0.15,0.86-0.29v1.01c-0.29,0.13-0.58,0.23-0.87,0.3
		C233.25,36.03,232.93,36.06,232.58,36.06z"/>
	<path class="st0" d="M237.64,24.64h1.08v3.19c0.22-0.5,0.5-0.96,0.84-1.39c0.34-0.43,0.72-0.79,1.15-1.09
		c0.42-0.3,0.89-0.53,1.4-0.68c0.51-0.15,1.04-0.22,1.6-0.21v1.19h-0.11c-0.65,0-1.26,0.12-1.85,0.36c-0.59,0.24-1.1,0.6-1.55,1.08
		c-0.45,0.48-0.8,1.06-1.07,1.76c-0.26,0.7-0.4,1.5-0.4,2.41v4.6h-1.08V24.64z"/>
	<path class="st0" d="M250.71,36.13c-0.7,0-1.33-0.11-1.89-0.34s-1.03-0.55-1.42-0.96c-0.39-0.41-0.68-0.9-0.88-1.46
		c-0.2-0.57-0.3-1.19-0.3-1.86v-6.87h1.08v6.67c0,1.16,0.31,2.09,0.92,2.78c0.62,0.7,1.5,1.05,2.64,1.05c0.54,0,1.05-0.1,1.53-0.3
		c0.48-0.2,0.89-0.47,1.24-0.83c0.35-0.35,0.63-0.77,0.83-1.27c0.2-0.49,0.3-1.03,0.3-1.62v-6.49h1.08v11.23h-1.08v-2.09
		c-0.38,0.66-0.9,1.22-1.54,1.67C252.58,35.9,251.74,36.13,250.71,36.13z"/>
	<path class="st0" d="M259.94,24.64h1.08v2c0.18-0.29,0.38-0.58,0.61-0.85s0.49-0.51,0.78-0.73c0.29-0.21,0.63-0.38,1.02-0.51
		c0.39-0.12,0.83-0.19,1.33-0.19c0.48,0,0.93,0.07,1.33,0.2c0.4,0.13,0.76,0.31,1.07,0.53c0.31,0.22,0.58,0.48,0.8,0.77
		c0.23,0.29,0.42,0.6,0.58,0.92c0.18-0.31,0.39-0.61,0.64-0.9c0.25-0.29,0.54-0.55,0.87-0.78s0.7-0.41,1.12-0.54
		c0.42-0.13,0.89-0.2,1.42-0.2c0.66,0,1.26,0.11,1.79,0.34c0.54,0.23,0.99,0.54,1.36,0.95c0.38,0.4,0.66,0.9,0.86,1.48
		c0.2,0.58,0.3,1.22,0.3,1.93v6.8h-1.08V29.2c0-1.22-0.29-2.16-0.88-2.83c-0.59-0.67-1.4-1-2.44-1c-0.47,0-0.92,0.09-1.35,0.26
		c-0.43,0.18-0.81,0.43-1.13,0.77c-0.32,0.34-0.58,0.75-0.77,1.24s-0.29,1.05-0.29,1.68v6.54h-1.08v-6.74
		c0-1.17-0.29-2.09-0.88-2.76s-1.39-1-2.4-1c-0.5,0-0.97,0.1-1.41,0.31c-0.44,0.21-0.82,0.49-1.14,0.86
		c-0.32,0.37-0.58,0.79-0.76,1.28c-0.18,0.48-0.28,1.01-0.28,1.58v6.47h-1.08V24.64z"/>
</g>
<g>
	<path class="st0" d="M77.43,18.28h1.08L68.1,38.7h-1.08L77.43,18.28z"/>
</g>
<g>
	<circle class="st1" cx="36.92" cy="28.99" r="23.87"/>
	<g>
		<path class="st2" d="M19.1,24.1h3.87v1.24c0.6-0.77,1.53-1.47,2.81-1.47c1.26,0,2.23,0.54,2.74,1.53
			c0.78-0.89,1.72-1.53,3.15-1.53c1.99,0,3.22,1.29,3.22,3.39v6.14h-3.87v-4.93c0-0.78-0.46-1.23-1.02-1.23s-1.07,0.44-1.07,1.23
			v4.93h-3.87v-4.93c0-0.78-0.46-1.23-1.02-1.23s-1.07,0.44-1.07,1.23v4.93H19.1V24.1z"/>
		<path class="st2" d="M35.63,30.77v-0.03c0-1.86,1.38-2.9,3.54-2.9c0.78,0,1.79,0.17,2.2,0.34v-0.15c0-0.85-0.53-1.35-1.72-1.35
			c-0.95,0-1.76,0.2-2.57,0.53l-0.68-2.57c1.07-0.41,2.3-0.68,3.92-0.68c1.89,0,3.12,0.39,3.94,1.21c0.7,0.7,0.97,1.6,0.97,2.95v5.3
			h-3.87v-0.94c-0.65,0.7-1.52,1.16-2.68,1.16C36.89,33.63,35.63,32.61,35.63,30.77z M41.41,29.97v-0.39
			c-0.22-0.08-0.56-0.15-0.89-0.15c-0.77,0-1.19,0.46-1.19,1.04v0.03c0,0.54,0.39,0.9,0.89,0.9C40.9,31.4,41.41,30.85,41.41,29.97z"
			/>
		<path class="st2" d="M45.99,30.99l3.78-3.85h-3.63V24.1h8.98v2.42l-3.8,3.85h3.8v3.03h-9.14V30.99z"/>
	</g>
</g>
</svg>
